# xmcd
#
# Track frame offsets:
#	150
#	14220
#	29863
#	43120
#	55673
#	68113
#	85028
#	104395
#	123508
#	139135
#	155210
#	170215
#	188275
#
# Disc length: 2740 seconds
# Revision: 5
# Processed by: cddbd v1.5.2PL0 Copyright (c) Steve Scherf et al.
# Submitted via: dBpowerAMP V12.0
#
DISCID=bc0ab20d
DTITLE=Johnny Cash - Country Christmas
DYEAR=1991
DGENRE=Christmas
TTITLE0=Blue Christmas
TTITLE1=Silent Night
TTITLE2=Figgy Pudding
TTITLE3=Here Was A Man
TTITLE4=Joy To The World
TTITLE5=O Little Town Of Bethlehem
TTITLE6=What Child Is This?
TTITLE7=The First Noel
TTITLE8=Away In A Manger
TTITLE9=O Christmas Tree
TTITLE10=O Come All Ye Faithful
TTITLE11=It Came Upon A Midnight Clear
TTITLE12=Hark! The Herald Angels Sing
EXTD=
EXTT0=
EXTT1=
EXTT2=
EXTT3=
EXTT4=
EXTT5=
EXTT6=
EXTT7=
EXTT8=
EXTT9=
EXTT10=
EXTT11=
EXTT12=
PLAYORDER=
